<svg width="28" height="29" viewBox="0 0 28 29" fill="none" xmlns="http://www.w3.org/2000/svg">
<path d="M0 1.29347C0 1.87681 0.412541 2.37569 0.898066 2.37569H4.99811L6.93918 18.013C7.19437 20.0352 8.10382 21.3028 9.8632 21.3028H24.0211C24.4937 21.3028 24.9062 20.847 24.9062 20.2351C24.9062 19.6226 24.4937 19.1669 24.0211 19.1669H10.0692C9.37768 19.1669 8.95323 18.5969 8.84401 17.7286L8.64991 16.2332H24.0449C25.8162 16.2332 26.7261 14.951 26.9808 12.9148L27.9513 5.38052C27.9774 5.20166 27.9936 5.02102 28 4.83971C28 4.15611 27.5631 3.68579 26.8959 3.68579H7.09705L6.85429 1.87742C6.73317 0.780609 6.39361 0.224609 5.15651 0.224609H0.897549C0.412541 0.224609 0 0.72349 0 1.29347ZM8.84453 25.9173C8.84453 27.2134 9.71827 28.2245 10.8218 28.2245C11.0805 28.227 11.3371 28.1691 11.5765 28.054C11.8159 27.939 12.0334 27.7691 12.2163 27.5543C12.3993 27.3396 12.544 27.0843 12.642 26.8032C12.74 26.5221 12.7894 26.221 12.7872 25.9173C12.7884 25.6139 12.7383 25.3133 12.64 25.0327C12.5416 24.7522 12.3969 24.4973 12.2142 24.2828C12.0314 24.0682 11.8143 23.8983 11.5753 23.7829C11.3364 23.6674 11.0803 23.6087 10.8218 23.61C9.71827 23.61 8.84453 24.6357 8.84453 25.9173ZM20.1876 25.9173C20.1876 27.2134 21.0732 28.2245 22.1649 28.2245C23.269 28.2245 24.1422 27.2134 24.1422 25.9173C24.1422 24.6351 23.269 23.61 22.1649 23.61C21.0732 23.61 20.1876 24.6357 20.1876 25.9173Z" fill="url(#paint0_linear_178_81)"/>
<defs>
<linearGradient id="paint0_linear_178_81" x1="14" y1="0.224609" x2="14" y2="28.2246" gradientUnits="userSpaceOnUse">
<stop stop-color="#0470FE"/>
<stop offset="1" stop-color="#10C0DF"/>
</linearGradient>
</defs>
</svg>
