<svg width="24" height="24" viewBox="0 0 24 24" fill="none" xmlns="http://www.w3.org/2000/svg">
<path d="M6.28994 14.2901C6.19621 14.383 6.12182 14.4936 6.07105 14.6155C6.02028 14.7373 5.99414 14.868 5.99414 15.0001C5.99414 15.1321 6.02028 15.2628 6.07105 15.3846C6.12182 15.5065 6.19621 15.6171 6.28994 15.7101L11.2899 20.7101C11.3829 20.8038 11.4935 20.8782 11.6154 20.929C11.7372 20.9797 11.8679 21.0059 11.9999 21.0059C12.132 21.0059 12.2627 20.9797 12.3845 20.929C12.5064 20.8782 12.617 20.8038 12.7099 20.7101L17.7099 15.7101C17.8037 15.6171 17.8781 15.5065 17.9288 15.3846C17.9796 15.2628 18.0057 15.1321 18.0057 15.0001C18.0057 14.868 17.9796 14.7373 17.9288 14.6155C17.8781 14.4936 17.8037 14.383 17.7099 14.2901C17.617 14.1963 17.5064 14.1219 17.3845 14.0712C17.2627 14.0204 17.132 13.9943 16.9999 13.9943C16.8679 13.9943 16.7372 14.0204 16.6154 14.0712C16.4935 14.1219 16.3829 14.1963 16.2899 14.2901L11.9999 18.5901L7.70994 14.2901C7.61698 14.1963 7.50638 14.1219 7.38452 14.0712C7.26266 14.0204 7.13195 13.9943 6.99994 13.9943C6.86793 13.9943 6.73722 14.0204 6.61536 14.0712C6.4935 14.1219 6.3829 14.1963 6.28994 14.2901ZM11.2899 3.29006L6.28994 8.29006C6.1967 8.3833 6.12274 8.49399 6.07228 8.61581C6.02182 8.73763 5.99585 8.8682 5.99585 9.00006C5.99585 9.26636 6.10164 9.52176 6.28994 9.71006C6.38318 9.8033 6.49387 9.87726 6.61569 9.92772C6.73751 9.97818 6.86808 10.0042 6.99994 10.0042C7.26624 10.0042 7.52164 9.89837 7.70994 9.71006L11.9999 5.41006L16.2899 9.71006C16.3829 9.80379 16.4935 9.87818 16.6154 9.92895C16.7372 9.97972 16.8679 10.0059 16.9999 10.0059C17.132 10.0059 17.2627 9.97972 17.3845 9.92895C17.5064 9.87818 17.617 9.80379 17.7099 9.71006C17.8037 9.6171 17.8781 9.5065 17.9288 9.38464C17.9796 9.26278 18.0057 9.13207 18.0057 9.00006C18.0057 8.86805 17.9796 8.73734 17.9288 8.61548C17.8781 8.49362 17.8037 8.38302 17.7099 8.29006L12.7099 3.29006C12.617 3.19633 12.5064 3.12194 12.3845 3.07117C12.2627 3.0204 12.132 2.99426 11.9999 2.99426C11.8679 2.99426 11.7372 3.0204 11.6154 3.07117C11.4935 3.12194 11.3829 3.19633 11.2899 3.29006Z" fill="white"/>
</svg>
