<svg width="27" height="29" viewBox="0 0 27 29" fill="none" xmlns="http://www.w3.org/2000/svg">
<path fill-rule="evenodd" clip-rule="evenodd" d="M7.5 6.46568C7.5 4.79206 8.13214 3.18698 9.25736 2.00355C10.3826 0.820118 11.9087 0.155273 13.5 0.155273C15.0913 0.155273 16.6174 0.820118 17.7426 2.00355C18.8679 3.18698 19.5 4.79206 19.5 6.46568C19.5 8.13931 18.8679 9.74438 17.7426 10.9278C16.6174 12.1112 15.0913 12.7761 13.5 12.7761C11.9087 12.7761 10.3826 12.1112 9.25736 10.9278C8.13214 9.74438 7.5 8.13931 7.5 6.46568ZM7.5 15.9313C5.51088 15.9313 3.60322 16.7623 2.1967 18.2416C0.790176 19.7209 0 21.7273 0 23.8193C0 25.0745 0.474106 26.2783 1.31802 27.1659C2.16193 28.0535 3.30653 28.5521 4.5 28.5521H22.5C23.6935 28.5521 24.8381 28.0535 25.682 27.1659C26.5259 26.2783 27 25.0745 27 23.8193C27 21.7273 26.2098 19.7209 24.8033 18.2416C23.3968 16.7623 21.4891 15.9313 19.5 15.9313H7.5Z" fill="black" fill-opacity="0.25"/>
</svg>
