<svg width="30" height="32" viewBox="0 0 30 32" fill="none" xmlns="http://www.w3.org/2000/svg">
<path d="M9.23096 5.58646C9.808 4.46453 10.6694 3.53273 11.7194 2.8945C12.7695 2.25626 13.9671 1.93656 15.1795 1.97088C16.3918 2.0052 17.5714 2.3922 18.5873 3.08891C19.6032 3.78563 20.4157 4.76481 20.9345 5.91776C19.5688 5.95011 18.2416 6.40021 17.1151 7.21306C15.9886 8.0259 15.1117 9.16628 14.5915 10.4948C14.1111 9.65434 13.5364 8.8777 12.8796 8.18163C11.8234 7.09068 10.587 6.21126 9.23096 5.58646ZM28.11 13.8039C28.12 13.6408 28.125 13.4765 28.125 13.3109C28.1256 11.7085 27.6314 10.1493 26.7167 8.86788C25.802 7.58647 24.5164 6.65219 23.0532 6.20567C22.5479 4.52177 21.5766 3.03462 20.2635 1.93432C18.9504 0.834011 17.3551 0.170534 15.6817 0.0286939C14.0082 -0.113146 12.3325 0.273095 10.8688 1.13805C9.40515 2.003 8.21995 3.30736 7.46473 4.88442C6.71892 4.64021 5.95933 4.44526 5.1904 4.3007C3.88984 4.05496 2.57056 3.93548 1.24921 3.94376L0.904217 3.9556H0.896717C0.667367 3.96968 0.45092 4.07186 0.288469 4.24272C0.126019 4.41357 0.0288746 4.64122 0.015481 4.88245V4.88442L0.000481397 5.25516C-0.00836047 6.64682 0.104614 8.03638 0.337976 9.40626C0.568597 10.7512 0.958591 12.2933 1.62233 13.8039H0.937966C0.68933 13.8039 0.450877 13.9077 0.275064 14.0927C0.099252 14.2776 0.000481397 14.5284 0.000481397 14.7899V15.7759C0.000481397 17.1366 0.165479 18.4578 0.472974 19.7199H29.5275C29.8425 18.4315 30.0012 17.1063 30 15.7759V14.7899C30 14.5284 29.9012 14.2776 29.7254 14.0927C29.5496 13.9077 29.3111 13.8039 29.0625 13.8039H28.11ZM3.72042 13.8039C2.90668 12.2617 2.44169 10.5717 2.18295 9.05524C2.00611 8.0197 1.90456 6.9715 1.8792 5.91973L2.09295 5.92762C2.79044 5.95325 3.76167 6.03213 4.85665 6.24117C7.06912 6.66121 9.66782 7.592 11.554 9.57585C12.709 10.7906 13.4909 12.2894 14.0159 13.8039H10.7028L7.22661 10.1477C7.13945 10.0562 7.036 9.9836 6.92216 9.93411C6.80832 9.88461 6.68633 9.85918 6.56315 9.85927C6.43997 9.85937 6.31801 9.88498 6.20424 9.93464C6.09047 9.9843 5.98711 10.057 5.90007 10.1487C5.81303 10.2404 5.74401 10.3492 5.69695 10.4689C5.64989 10.5887 5.62572 10.717 5.62581 10.8465C5.62589 10.9761 5.65024 11.1044 5.69746 11.224C5.74468 11.3437 5.81385 11.4524 5.90101 11.5439L8.0516 13.8039H3.72042ZM15.9977 13.8039L15.9471 13.6441C15.9063 12.9002 16.0117 12.1553 16.2568 11.4561C16.5019 10.7569 16.8813 10.1183 17.3715 9.5802C17.8616 9.04209 18.452 8.616 19.1057 8.32853C19.7594 8.04106 20.4624 7.89838 21.1708 7.90938C21.8793 7.92038 22.578 8.08484 23.2233 8.39249C23.8687 8.70013 24.4468 9.14437 24.9216 9.69747C25.3965 10.2506 25.7578 10.9007 25.9832 11.6072C26.2085 12.3137 26.293 13.0615 26.2313 13.8039H15.9977ZM15.0002 31.552C12.0118 31.5527 9.09123 30.6145 6.61314 28.8578C4.13505 27.101 2.21239 24.6057 1.09171 21.6919H28.9106C27.7898 24.606 25.8669 27.1015 23.3884 28.8583C20.91 30.6151 17.989 31.5531 15.0002 31.552Z" fill="url(#paint0_linear_293_484)"/>
<defs>
<linearGradient id="paint0_linear_293_484" x1="15" y1="0" x2="15" y2="31.552" gradientUnits="userSpaceOnUse">
<stop stop-color="#0470FE"/>
<stop offset="1" stop-color="#10C0DF"/>
</linearGradient>
</defs>
</svg>
