<svg width="30" height="27" viewBox="0 0 30 27" fill="none" xmlns="http://www.w3.org/2000/svg">
<path fill-rule="evenodd" clip-rule="evenodd" d="M27.6145 7.86766C27.5326 7.86259 27.4454 7.86057 27.3529 7.86158H23.7023C20.7124 7.86158 18.1548 10.337 18.1548 13.5635C18.1548 16.79 20.7138 19.2654 23.7023 19.2654H27.3529C27.4454 19.2664 27.5331 19.2644 27.616 19.2593C28.2305 19.2203 28.8106 18.9478 29.2481 18.4923C29.6857 18.0369 29.9509 17.4297 29.9943 16.7839C30.0001 16.6927 30.0001 16.5939 30.0001 16.5026V10.6243C30.0001 10.5331 30.0001 10.4343 29.9943 10.3431C29.9509 9.69723 29.6857 9.09005 29.2481 8.63463C28.8106 8.17922 28.229 7.90663 27.6145 7.86766ZM23.3827 15.084C24.1519 15.084 24.775 14.4028 24.775 13.5635C24.775 12.7242 24.1519 12.043 23.3827 12.043C22.6121 12.043 21.989 12.7242 21.989 13.5635C21.989 14.4028 22.6121 15.084 23.3827 15.084Z" fill="black" fill-opacity="0.25"/>
<path fill-rule="evenodd" clip-rule="evenodd" d="M27.3513 21.5459C27.4013 21.5438 27.4511 21.5541 27.4965 21.576C27.542 21.5979 27.5819 21.6308 27.6131 21.672C27.6442 21.7132 27.6657 21.7615 27.6757 21.813C27.6857 21.8646 27.6841 21.9179 27.6708 21.9686C27.3817 23.0512 26.9205 23.9757 26.1817 24.7511C25.0988 25.8915 23.7267 26.3948 22.0323 26.635C20.3841 26.8677 18.2805 26.8677 15.6231 26.8677H12.5696C9.91229 26.8677 7.80723 26.8677 6.16048 26.635C4.46602 26.3948 3.09398 25.89 2.01108 24.7526C0.929639 23.6138 0.449639 22.1708 0.221205 20.3888C1.72351e-07 18.6554 0 16.4431 0 13.6484V13.4781C0 10.6834 1.72351e-07 8.46953 0.221205 6.73615C0.449639 4.95412 0.929639 3.51115 2.01108 2.37229C3.09398 1.23495 4.46602 0.730146 6.16048 0.489906C7.80867 0.258789 9.91229 0.258789 12.5696 0.258789H15.6231C18.2805 0.258789 20.3855 0.258789 22.0323 0.491427C23.7267 0.731667 25.0988 1.23648 26.1817 2.37382C26.9205 3.15231 27.3817 4.07526 27.6708 5.15787C27.6841 5.2086 27.6857 5.2619 27.6757 5.31344C27.6657 5.36498 27.6442 5.4133 27.6131 5.45449C27.5819 5.49567 27.542 5.52855 27.4965 5.55045C27.4511 5.57236 27.4013 5.58268 27.3513 5.58057H23.7022C19.6005 5.58057 15.986 8.9865 15.986 13.5632C15.986 18.14 19.6005 21.5459 23.7022 21.5459H27.3513ZM7.22892 19.2651C6.94133 19.2651 6.66553 19.145 6.46217 18.9311C6.25882 18.7173 6.14458 18.4272 6.14458 18.1248V9.00171C6.14458 8.69926 6.25882 8.4092 6.46217 8.19534C6.66553 7.98147 6.94133 7.86133 7.22892 7.86133C7.5165 7.86133 7.79231 7.98147 7.99566 8.19534C8.19901 8.4092 8.31325 8.69926 8.31325 9.00171V18.1248C8.31325 18.4272 8.19901 18.7173 7.99566 18.9311C7.79231 19.145 7.5165 19.2651 7.22892 19.2651Z" fill="black" fill-opacity="0.25"/>
</svg>
