<svg width="24" height="22" viewBox="0 0 24 22" fill="none" xmlns="http://www.w3.org/2000/svg">
<path d="M22 17.875C22.4815 17.8752 22.9445 18.0607 23.293 18.393C23.6415 18.7253 23.8488 19.1789 23.8719 19.6599C23.895 20.1409 23.7323 20.6123 23.4173 20.9765C23.1023 21.3407 22.6593 21.5698 22.18 21.6162L22 21.625H2C1.51848 21.6248 1.05551 21.4393 0.707017 21.107C0.358527 20.7747 0.151235 20.3211 0.128095 19.8401C0.104954 19.3591 0.26774 18.8877 0.582719 18.5235C0.897699 18.1593 1.34073 17.9302 1.82 17.8838L2 17.875H22ZM22 9.125C22.4973 9.125 22.9742 9.32254 23.3258 9.67417C23.6775 10.0258 23.875 10.5027 23.875 11C23.875 11.4973 23.6775 11.9742 23.3258 12.3258C22.9742 12.6775 22.4973 12.875 22 12.875H2C1.50272 12.875 1.02581 12.6775 0.674175 12.3258C0.322544 11.9742 0.125 11.4973 0.125 11C0.125 10.5027 0.322544 10.0258 0.674175 9.67417C1.02581 9.32254 1.50272 9.125 2 9.125H22ZM22 0.375C22.4973 0.375 22.9742 0.572544 23.3258 0.924175C23.6775 1.27581 23.875 1.75272 23.875 2.25C23.875 2.74728 23.6775 3.22419 23.3258 3.57583C22.9742 3.92746 22.4973 4.125 22 4.125H2C1.50272 4.125 1.02581 3.92746 0.674175 3.57583C0.322544 3.22419 0.125 2.74728 0.125 2.25C0.125 1.75272 0.322544 1.27581 0.674175 0.924175C1.02581 0.572544 1.50272 0.375 2 0.375H22Z" fill="url(#paint0_linear_170_50)"/>
<defs>
<linearGradient id="paint0_linear_170_50" x1="12" y1="0.375" x2="12" y2="21.625" gradientUnits="userSpaceOnUse">
<stop stop-color="#0470FE"/>
<stop offset="1" stop-color="#10C0DF"/>
</linearGradient>
</defs>
</svg>
